#!OML:ASF H:\GeneralSubjects\Female5\Project 1\Capture day 1\Session 1\Female5.ASF
:FULLY-SPECIFIED
:DEGREES
254
root -12.0804 15.9586 3.4316 325.231 -94.5472 -313.906
lowerback 6.91986 3.59338 2.33747
upperback -10.3564 5.19711 1.99022
thorax -15.3688 2.18868 -0.0759717
lowerneck -21.1361 -1.73144 -1.13071
upperneck 23.0768 -1.67866 -1.93947
head 10.9536 -1.17639 -0.786932
rclavicle 2.18663e-015 -1.94809e-014
rhumerus -52.7174 21.8045 -87.3194
rradius 55.9115
rwrist -32.4289
rhand -20.0357 -31.562
rfingers 7.12502
rthumb 6.30536 -61.4482
lclavicle 2.18663e-015 -1.94809e-014
lhumerus -51.635 8.55 63.8944
lradius 33.812
lwrist -6.53269
lhand -29.9783 30.2745
lfingers 7.12502
lthumb -3.29649 -299.771
rfemur 17.4155 36.1094 45.3458
rtibia -12.2105
rfoot -58.3891 -35.4236
rtoes 27.2191
lfemur -32.2123 -18.2821 -13.3795
ltibia 13.4061
lfoot -12.2612 -2.90855
ltoes -5.59422
255
root -12.0184 15.954 3.41055 327.13 -95.1306 -315.771
lowerback 6.9143 3.6395 2.6237
upperback -10.357 5.29877 2.00228
thorax -15.3396 2.20351 -0.239092
lowerneck -21.374 -1.54743 -1.28466
upperneck 23.5502 -1.53143 -1.33562
head 11.183 -1.05065 -0.527442
rclavicle -8.64713e-015 -9.93923e-015
rhumerus -53.1205 21.6322 -87.5944
rradius 54.4472
rwrist -32.2383
rhand -20.3373 -30.7218
rfingers 7.12502
rthumb 6.01417 -60.6165
lclavicle -8.64713e-015 -9.93923e-015
lhumerus -51.0725 8.13109 64.3116
lradius 34.2629
lwrist -6.21973
lhand -30.7233 30.0257
lfingers 7.12502
lthumb -4.01595 -300.032
rfemur 17.4118 36.5329 45.7359
rtibia -12.4709
rfoot -58.1303 -35.4879
rtoes 27.0489
lfemur -32.2503 -18.0856 -12.695
ltibia 13.0494
lfoot -12.7053 -2.72879
ltoes -4.93619
256
root -11.9548 15.9497 3.38913 330.337 -95.6003 -318.851
lowerback 6.82396 3.65155 2.62595
upperback -10.3916 5.30921 2.02265
thorax -15.3258 2.20786 -0.213937
lowerneck -21.7735 -1.31001 -1.44736
upperneck 24.3024 -1.3117 -0.73313
head 11.5503 -0.8961 -0.255348
rclavicle -1.18774e-014 1.86858e-014
rhumerus -53.4206 21.673 -87.8737
rradius 52.9509
rwrist -31.8802
rhand -20.9746 -30.3465
rfingers 7.12502
rthumb 5.39885 -60.2577
lclavicle -1.18774e-014 1.86858e-014
lhumerus -50.5179 8.02801 64.5764
lradius 34.7207
lwrist -5.82357
lhand -30.3311 31.0234
lfingers 7.12502
lthumb -3.63724 -299.028
rfemur 17.2086 36.9977 45.7954
rtibia -12.604
rfoot -57.9353 -35.2546
rtoes 27.3529
lfemur -32.4093 -17.8225 -12.2065
ltibia 12.8122
lfoot -13.1058 -2.60153
ltoes -4.3564
257
root -11.8943 15.9466 3.37161 332.898 -95.9667 -321.31
lowerback 6.67582 3.64084 2.60065
upperback -10.3778 5.28233 2.04631
thorax -15.2181 2.20181 -0.158346
lowerneck -21.6069 -1.16369 -1.02079
upperneck 24.3143 -1.16216 -1.08217
head 11.5163 -0.83683 -0.430658
rclavicle -6.75868e-015 3.57812e-015
rhumerus -53.5145 21.6396 -87.9689
rradius 51.4528
rwrist -31.0884
rhand -20.9434 -30.9493
rfingers 7.12502
rthumb 5.42901 -60.8598
lclavicle -6.75868e-015 3.57812e-015
lhumerus -50.3522 7.26186 65.2922
lradius 36.2259
lwrist -4.29338
lhand -29.2978 31.895
lfingers 7.12502
lthumb -2.63928 -298.142
rfemur 17.1241 37.3281 45.8073
rtibia -12.8987
rfoot -57.7708 -34.9213
rtoes 28.2128
lfemur -32.5745 -17.748 -11.8139
ltibia 12.6443
lfoot -13.6683 -2.37143
ltoes -4.1329
258
root -11.84 15.9444 3.3589 334.068 -96.3202 -322.392
lowerback 6.51442 3.61903 2.76272
upperback -10.3635 5.26379 2.0626
thorax -15.083 2.17814 -0.214715
lowerneck -21.1338 -0.95434 -0.203657
upperneck 23.717 -0.927055 -1.87353
head 11.1899 -0.752613 -0.810065
rclavicle -5.397e-014 -3.02153e-014
rhumerus -53.4502 21.3645 -87.9128
rradius 49.9996
rwrist -30.054
rhand -20.1843 -31.76
rfingers 7.12502
rthumb 6.16189 -61.6504
lclavicle -5.397e-014 -3.02153e-014
lhumerus -50.0368 6.68265 65.9076
lradius 37.3935
lwrist -3.19208
lhand -29.6038 30.5781
lfingers 7.12502
lthumb -2.93486 -299.462
rfemur 17.1633 37.5467 45.8857
rtibia -13.4495
rfoot -57.4409 -35.0162
rtoes 28.6288
lfemur -32.6542 -17.9542 -11.2996
ltibia 12.3299
lfoot -14.1995 -2.23699
ltoes -3.21459
259
root -11.786 15.9433 3.34467 335.632 -96.6338 -323.891
lowerback 6.43682 3.58867 2.82321
upperback -10.3841 5.22269 2.06088
thorax -15.0528 2.15097 -0.23709
lowerneck -21.0618 -0.711638 -0.1798
upperneck 23.7473 -0.689054 -1.53044
head 11.191 -0.598122 -0.651197
rclavicle 4.55714e-014 4.05521e-014
rhumerus -53.3537 21.0584 -87.8965
rradius 48.5027
rwrist -29.1911
rhand -19.9722 -31.4961
rfingers 7.12502
rthumb 6.36661 -61.3804
lclavicle 4.55714e-014 4.05521e-014
lhumerus -49.6753 6.35205 66.3838
lradius 38.2993
lwrist -2.71191
lhand -30.2366 29.503
lfingers 7.12502
lthumb -3.54596 -300.547
rfemur 17.1663 37.7705 45.962
rtibia -13.8208
rfoot -57.0188 -35.2574
rtoes 28.55
lfemur -32.6569 -18.1373 -10.8531
ltibia 12.0146
lfoot -14.6446 -2.23382
ltoes -2.83346
260
root -11.7266 15.9434 3.32398 337.049 -97.0219 -325.295
lowerback 6.47019 3.58339 2.78814
upperback -10.3809 5.21496 2.09623
thorax -15.0778 2.15252 -0.178987
lowerneck -21.4437 -0.539975 -0.731681
upperneck 24.4171 -0.543477 -0.532267
head 11.5243 -0.459928 -0.176525
rclavicle 4.91992e-015 -1.35174e-014
rhumerus -53.0792 20.7058 -87.8334
rradius 46.8804
rwrist -28.4335
rhand -20.4141 -30.1205
rfingers 7.12502
rthumb 5.94002 -60.0172
lclavicle 4.91992e-015 -1.35174e-014
lhumerus -49.2242 6.16868 66.8401
lradius 39.1237
lwrist -2.51913
lhand -30.1419 30.1648
lfingers 7.12502
lthumb -3.4545 -299.883
rfemur 17.087 38.08 46.1868
rtibia -13.861
rfoot -56.5962 -35.4684
rtoes 28.3542
lfemur -32.6831 -18.1867 -10.3192
ltibia 11.8042
lfoot -15.2612 -2.24847
ltoes -3.36274
261
root -11.6663 15.9422 3.30327 336.607 -97.5201 -324.86
lowerback 6.5959 3.57567 3.02312
upperback -10.3964 5.25187 2.18948
thorax -15.1673 2.14561 -0.219245
lowerneck -21.5962 -0.426103 -0.872792
upperneck 24.8094 -0.451654 -0.147003
head 11.7053 -0.385906 0.00213192
rclavicle -7.70291e-015 -1.39149e-014
rhumerus -52.6807 20.177 -87.5761
rradius 45.2958
rwrist -27.4326
rhand -20.4293 -29.5104
rfingers 7.12502
rthumb 5.92537 -59.4076
lclavicle -7.70291e-015 -1.39149e-014
lhumerus -48.8635 5.65522 67.4657
lradius 39.9905
lwrist -2.00318
lhand -30.0734 30.5196
lfingers 7.12502
lthumb -3.38834 -299.528
rfemur 16.9162 38.3848 46.5445
rtibia -13.8823
rfoot -56.112 -35.8304
rtoes 27.9636
lfemur -32.723 -18.2259 -9.47857
ltibia 11.5044
lfoot -15.9541 -2.20693
ltoes -3.49642
262
root -11.6121 15.9402 3.28822 336.248 -97.9458 -324.512
lowerback 6.69936 3.53656 3.2973
upperback -10.4414 5.24854 2.27177
thorax -15.2746 2.1128 -0.284215
lowerneck -21.3795 -0.251046 -0.654052
upperneck 24.9047 -0.27953 -0.183936
head 11.6983 -0.295958 -0.0207715
rclavicle 2.45996e-014 4.05521e-014
rhumerus -52.349 19.6402 -87.1743
rradius 43.9315
rwrist -26.2261
rhand -19.8919 -29.8974
rfingers 7.12502
rthumb 6.44417 -59.7794
lclavicle 2.45996e-014 4.05521e-014
lhumerus -48.7176 4.75839 68.2397
lradius 40.9963
lwrist -1.13266
lhand -30.3218 30.0461
lfingers 7.12502
lthumb -3.62818 -300.005
rfemur 16.7828 38.5866 46.7285
rtibia -14.086
rfoot -55.7234 -36.0371
rtoes 27.755
lfemur -32.6267 -18.4962 -8.71209
ltibia 10.9878
lfoot -16.7513 -2.09087
ltoes -3.16824
263
root -11.5639 15.9423 3.27424 338.191 -98.1634 -326.499
lowerback 6.6509 3.46609 3.0883
upperback -10.4252 5.12364 2.32127
thorax -15.2495 2.08225 -0.0869478
lowerneck -21.1616 0.00583636 -0.497678
upperneck 24.9991 0.0199032 -0.178343
head 11.6911 -0.148975 0.00282879
rclavicle 9.39258e-015 1.55052e-014
rhumerus -51.9959 19.3655 -86.8393
rradius 42.638
rwrist -25.827
rhand -19.9978 -29.1801
rfingers 7.12502
rthumb 6.3419 -59.0652
lclavicle 9.39258e-015 1.55052e-014
lhumerus -48.5275 4.1267 68.9541
lradius 41.8729
lwrist -0.553819
lhand -30.5205 29.8056
lfingers 7.12502
lthumb -3.82007 -300.249
rfemur 16.8118 38.7432 46.6418
rtibia -14.3272
rfoot -55.551 -35.9787
rtoes 28.0785
lfemur -32.376 -19.1883 -8.34328
ltibia 10.3534
lfoot -17.8304 -2.11544
ltoes -2.63609
264
root -11.5171 15.9451 3.25959 340.205 -98.3684 -328.543
lowerback 6.53556 3.40841 2.84493
upperback -10.3837 5.00515 2.34401
thorax -15.1488 2.05922 0.102259
lowerneck -21.0525 0.205964 -0.490587
upperneck 25.1602 0.264095 -0.0775601
head 11.7309 -0.028944 0.0776438
rclavicle -6.94255e-014 -5.4467e-014
rhumerus -51.5917 19.239 -86.7106
rradius 41.3424
rwrist -26.4629
rhand -20.9169 -27.5046
rfingers 7.12502
rthumb 5.4546 -57.4144
lclavicle -6.94255e-014 -5.4467e-014
lhumerus -48.1511 3.78589 69.541
lradius 42.4635
lwrist -0.411398
lhand -30.428 30.2939
lfingers 7.12502
lthumb -3.73079 -299.759
rfemur 16.807 38.9059 46.5668
rtibia -14.4502
rfoot -55.3856 -35.9111
rtoes 28.3787
lfemur -32.187 -19.8512 -8.00021
ltibia 9.8425
lfoot -18.881 -2.29464
ltoes -2.44725
265
root -11.4688 15.9431 3.24729 340.731 -98.731 -329.041
lowerback 6.52627 3.40994 2.97144
upperback -10.4289 5.02146 2.35018
thorax -15.1878 2.04954 0.0369197
lowerneck -21.0092 0.261603 -0.357157
upperneck 25.5347 0.327076 -0.232556
head 11.8676 -0.0161197 0.00609047
rclavicle -4.39811e-014 -8.34896e-015
rhumerus -51.2256 18.8832 -86.5112
rradius 40.2294
rwrist -26.6546
rhand -21.187 -26.933
rfingers 7.12502
rthumb 5.19377 -56.8493
lclavicle -4.39811e-014 -8.34896e-015
lhumerus -47.8153 3.21687 70.1658
lradius 42.9576
lwrist -0.30522
lhand -30.5763 30.5215
lfingers 7.12502
lthumb -3.87403 -299.534
rfemur 16.5941 39.1475 46.5761
rtibia -14.4932
rfoot -55.1108 -35.9623
rtoes 28.3819
lfemur -32.1282 -20.3017 -7.36997
ltibia 9.41635
lfoot -19.8943 -2.31636
ltoes -2.89712
